#N canvas 47 392 614 492 10;
#X obj 69 200 udpsend;
#X msg 138 210 disconnect;
#X obj 71 147 packOSC;
#X obj 69 235 tgl 15 0 empty empty 1=connected 20 8 0 8 -4034 -257985
-1 1 1;
#X floatatom 128 182 5 0 0 0 - - -, f 5;
#X msg 131 151 connect 127.0.0.1 57120;
#X msg 92 93 send /tc2 \$1;
#X obj 83 42 random 100;
#X obj 83 64 / 100;
#X obj 83 22 metro 30;
#X obj 245 6 loadbang;
#X obj 83 3 tgl 15 0 empty empty empty 17 7 0 10 -262144 -1 -1 1 1
;
#X obj 287 68 random 100;
#X obj 287 90 / 100;
#X obj 287 29 tgl 15 0 empty empty empty 17 7 0 10 -262144 -1 -1 1
1;
#X msg 207 116 send /tc1 \$1;
#X obj 287 48 metro 32;
#X connect 0 0 3 0;
#X connect 1 0 0 0;
#X connect 2 0 0 0;
#X connect 2 1 4 0;
#X connect 5 0 0 0;
#X connect 6 0 2 0;
#X connect 7 0 8 0;
#X connect 8 0 6 0;
#X connect 9 0 7 0;
#X connect 10 0 5 0;
#X connect 10 0 11 0;
#X connect 10 0 14 0;
#X connect 11 0 9 0;
#X connect 12 0 13 0;
#X connect 13 0 15 0;
#X connect 14 0 16 0;
#X connect 15 0 2 0;
#X connect 16 0 12 0;
