#N canvas 546 23 839 577 10;
#X obj 69 200 udpsend;
#X msg 138 210 disconnect;
#X obj 71 147 packOSC;
#X obj 69 235 tgl 15 0 empty empty 1=connected 20 8 0 8 -4034 -257985
-1 1 1;
#X floatatom 128 182 5 0 0 0 - - -, f 5;
#X msg 131 151 connect 127.0.0.1 57120;
#X msg 92 93 send /tc2 \$1;
#X obj 245 6 loadbang;
#X obj 83 3 tgl 15 0 empty empty empty 17 7 0 10 -262144 -1 -1 1 1
;
#X obj 287 29 tgl 15 0 empty empty empty 17 7 0 10 -262144 -1 -1 1
1;
#X msg 207 116 send /tc1 \$1;
#X obj 485 70 zexy;
#X msg 498 189 bang;
#X floatatom 564 315 0 0 0 0 - - -;
#X floatatom 529 335 0 0 0 0 - - -;
#X floatatom 497 357 0 0 0 0 - - -;
#X obj 497 253 time, f 16;
#X floatatom 597 295 0 0 0 0 - - -;
#X obj 498 381 * 3600;
#X obj 531 412 * 60;
#X obj 575 496 +;
#X obj 544 467 +;
#X obj 516 439 +;
#X floatatom 564 523 15 0 0 0 - - -, f 15;
#N canvas 0 23 688 629 nowInSeconds 0;
#X floatatom 223 208 0 0 0 0 - - -;
#X floatatom 188 228 0 0 0 0 - - -;
#X floatatom 156 250 0 0 0 0 - - -;
#X obj 156 146 time, f 16;
#X floatatom 256 188 0 0 0 0 - - -;
#X obj 157 274 * 3600;
#X obj 190 305 * 60;
#X obj 234 389 +;
#X obj 203 360 +;
#X obj 175 332 +;
#X floatatom 223 416 15 0 0 0 - - -, f 15;
#X obj 174 60 inlet;
#X obj 204 511 outlet;
#X obj 265 260 * 0.001;
#X connect 0 0 8 1;
#X connect 1 0 6 0;
#X connect 2 0 5 0;
#X connect 3 0 2 0;
#X connect 3 1 1 0;
#X connect 3 2 0 0;
#X connect 3 3 4 0;
#X connect 4 0 13 0;
#X connect 5 0 9 0;
#X connect 6 0 9 1;
#X connect 7 0 10 0;
#X connect 7 0 12 0;
#X connect 8 0 7 0;
#X connect 9 0 8 0;
#X connect 11 0 3 0;
#X connect 13 0 7 1;
#X restore 53 54 pd nowInSeconds;
#N canvas 0 23 688 629 nowInSeconds 0;
#X floatatom 223 208 0 0 0 0 - - -;
#X floatatom 188 228 0 0 0 0 - - -;
#X floatatom 156 250 0 0 0 0 - - -;
#X obj 156 146 time, f 16;
#X floatatom 256 188 0 0 0 0 - - -;
#X obj 157 274 * 3600;
#X obj 190 305 * 60;
#X obj 265 260 / 1000;
#X obj 234 389 +;
#X obj 203 360 +;
#X obj 175 332 +;
#X floatatom 223 416 15 0 0 0 - - -, f 15;
#X obj 174 60 inlet;
#X obj 204 511 outlet;
#X connect 0 0 9 1;
#X connect 1 0 6 0;
#X connect 2 0 5 0;
#X connect 3 0 2 0;
#X connect 3 1 1 0;
#X connect 3 2 0 0;
#X connect 3 3 4 0;
#X connect 4 0 7 0;
#X connect 5 0 10 0;
#X connect 6 0 10 1;
#X connect 7 0 8 1;
#X connect 8 0 11 0;
#X connect 8 0 13 0;
#X connect 9 0 8 0;
#X connect 10 0 9 0;
#X connect 12 0 3 0;
#X restore 264 85 pd nowInSeconds;
#X obj 606 367 * 0.001;
#X obj 83 22 metro 40;
#X obj 287 48 metro 40;
#X connect 0 0 3 0;
#X connect 1 0 0 0;
#X connect 2 0 0 0;
#X connect 2 1 4 0;
#X connect 5 0 0 0;
#X connect 6 0 2 0;
#X connect 7 0 5 0;
#X connect 7 0 8 0;
#X connect 7 0 9 0;
#X connect 8 0 27 0;
#X connect 9 0 28 0;
#X connect 10 0 2 0;
#X connect 12 0 16 0;
#X connect 13 0 21 1;
#X connect 14 0 19 0;
#X connect 15 0 18 0;
#X connect 16 0 15 0;
#X connect 16 1 14 0;
#X connect 16 2 13 0;
#X connect 16 3 17 0;
#X connect 17 0 26 0;
#X connect 18 0 22 0;
#X connect 19 0 22 1;
#X connect 20 0 23 0;
#X connect 21 0 20 0;
#X connect 22 0 21 0;
#X connect 24 0 6 0;
#X connect 25 0 10 0;
#X connect 26 0 20 1;
#X connect 27 0 24 0;
#X connect 28 0 25 0;
